<svg width="34" height="34" viewBox="0 0 34 34" fill="none" xmlns="http://www.w3.org/2000/svg">
<path d="M26.3739 34H7.61661C7.10504 34 6.68821 33.5862 6.68821 33.0713V29.1004C6.68821 28.5887 6.27454 28.1717 5.75982 28.1717H0.928392C0.413671 28.1749 0 27.7579 0 27.2461V6.84865C0 6.3369 0.413671 5.91991 0.928392 5.91991H5.74719C6.25875 5.91991 6.67558 5.50609 6.67558 4.99117V0.928737C6.67558 0.416984 7.08925 0 7.60398 0H26.3676C26.8792 0 27.296 0.413825 27.296 0.928737V4.99117C27.296 5.50293 27.7097 5.91991 28.2244 5.91991H33.0716C33.5832 5.91991 34 6.33374 34 6.84865V27.243C34 27.7547 33.5863 28.1717 33.0716 28.1717H28.2339C27.7223 28.1717 27.3055 28.5918 27.3055 29.1036C27.3055 30.9453 27.3055 32.272 27.3023 33.0807C27.2992 33.5862 26.8855 34 26.3739 34ZM2.87044 9.72963V24.3462C2.87044 24.8579 3.28411 25.2749 3.79883 25.2749H8.605C9.11656 25.2749 9.53339 24.8611 9.53339 24.3462V9.72963C9.53339 9.21788 9.11972 8.80089 8.605 8.80089H3.79883C3.28727 8.80405 2.87044 9.21788 2.87044 9.72963ZM30.2043 8.80721H25.3918C24.8803 8.80721 24.4635 9.22104 24.4635 9.73595V24.3462C24.4635 24.8579 24.8771 25.2749 25.3918 25.2749H30.2043C30.7159 25.2749 31.1327 24.8611 31.1327 24.3462V9.73595C31.1327 9.22419 30.7159 8.80721 30.2043 8.80721ZM10.5028 8.75351H23.4877C23.9993 8.75351 24.4161 8.33968 24.4161 7.82477V3.79708C24.4161 3.28533 24.0024 2.86835 23.4877 2.86835H10.5028C9.99127 2.86835 9.57444 3.28217 9.57444 3.79708V7.82793C9.57444 8.33968 9.98811 8.75351 10.5028 8.75351ZM23.4877 25.3476H10.506C9.99443 25.3476 9.5776 25.7614 9.5776 26.2763V30.1934C9.5776 30.7052 9.99127 31.1222 10.506 31.1222H23.4877C23.9993 31.1222 24.4161 30.7084 24.4161 30.1934V26.2763C24.4161 25.7614 23.9993 25.3476 23.4877 25.3476ZM13.8217 21.9801H20.172C20.6836 21.9801 21.1004 21.5663 21.1004 21.0514V13.0465C21.1004 12.5348 20.6867 12.1178 20.172 12.1178H13.8217C13.3101 12.1178 12.8933 12.5316 12.8933 13.0465V21.0514C12.8933 21.5631 13.3101 21.9801 13.8217 21.9801Z" fill="black"/>
</svg>
